# xmcd CD database file
#
# Track frame offsets:
#	150
#	19954
#	34146
#	51442
#	64102
#	82774
#	110306
#	136738
#	158300
#	174129
#	196301
#
# Disc length: 3197 seconds
#
# Revision: 0
# Processed by: cddbd v1.4PL0 Copyright (c) Steve Scherf et al.
# Submitted via: CDex 1.50beta10
#
DISCID=7d0c7b0b
DTITLE=Squat - Gruelash
DYEAR=2002
DGENRE=Jazz
TTITLE0=Garlic Juice
TTITLE1=Cider Pop
TTITLE2=Veggie Cuban
TTITLE3=Rickshaw
TTITLE4=Song for Karen
TTITLE5=Packing the Dough Boy
TTITLE6=Just Kinda Waitin' Round
TTITLE7=Song for Leila
TTITLE8=By My Side
TTITLE9=Chicken Skin
TTITLE10=Trance
EXTD=YEAR: 2002
EXTT0=
EXTT1=
EXTT2=
EXTT3=
EXTT4=
EXTT5=
EXTT6=
EXTT7=
EXTT8=
EXTT9=
EXTT10=
PLAYORDER=
